<svg xmlns="http://www.w3.org/2000/svg" viewBox="0 0 48.34 37.46"><defs><style>.cls-1{fill:#2E408E;}.cls-2{fill:#fff;}.cls-3{fill:#2E408E;}</style></defs><title>Asset 18</title><g id="Layer_2"><g id="Layer_2-2"><circle class="cls-1" cx="33.17" cy="22.26" r="11.61"/><circle class="cls-2" cx="33.16" cy="22.25" r="7.7"/><polygon class="cls-1" points="35.04 11.51 29.76 11.89 30.05 7.43 34.1 7.14 35.04 11.51"/><polygon class="cls-1" points="36.59 32.7 31.31 33.09 32.26 37.46 36.3 37.16 36.59 32.7"/><polygon class="cls-1" points="35.04 11.51 29.76 11.89 30.05 7.43 34.1 7.14 35.04 11.51"/><polygon class="cls-1" points="36.59 32.7 31.31 33.09 32.26 37.46 36.3 37.16 36.59 32.7"/><polygon class="cls-1" points="29.39 12.02 25.02 15 23.04 10.99 26.39 8.71 29.39 12.02"/><polygon class="cls-1" points="41.34 29.6 36.96 32.57 39.96 35.88 43.31 33.61 41.34 29.6"/><polygon class="cls-1" points="24.76 15.29 22.46 20.05 18.74 17.57 20.51 13.92 24.76 15.29"/><polygon class="cls-1" points="43.89 24.54 41.59 29.3 45.84 30.67 47.61 27.02 43.89 24.54"/><polygon class="cls-1" points="22.39 20.43 22.77 25.71 18.31 25.42 18.02 21.38 22.39 20.43"/><polygon class="cls-1" points="43.58 18.88 43.97 24.16 48.34 23.22 48.04 19.18 43.58 18.88"/><polygon class="cls-1" points="22.9 26.08 25.88 30.46 21.87 32.43 19.59 29.08 22.9 26.08"/><polygon class="cls-1" points="40.48 14.14 43.45 18.52 46.77 15.51 44.49 12.16 40.48 14.14"/><polygon class="cls-1" points="26.17 30.71 30.93 33.02 28.45 36.73 24.8 34.97 26.17 30.71"/><polygon class="cls-1" points="35.42 11.58 40.19 13.88 41.55 9.63 37.91 7.87 35.42 11.58"/><circle class="cls-1" cx="11.66" cy="12.22" r="9.38"/><circle class="cls-2" cx="11.66" cy="12.22" r="6.23"/><polygon class="cls-3" points="13.17 3.53 8.9 3.85 9.14 0.24 12.41 0 13.17 3.53"/><polygon class="cls-3" points="14.43 20.66 10.16 20.97 10.92 24.51 14.19 24.27 14.43 20.66"/><polygon class="cls-1" points="13.17 3.53 8.9 3.85 9.14 0.24 12.41 0 13.17 3.53"/><polygon class="cls-1" points="14.43 20.66 10.16 20.97 10.92 24.51 14.19 24.27 14.43 20.66"/><polygon class="cls-1" points="4.87 6.59 3 10.44 0 8.43 1.43 5.48 4.87 6.59"/><polygon class="cls-1" points="20.33 14.06 18.47 17.92 21.91 19.02 23.33 16.07 20.33 14.06"/><polygon class="cls-1" points="3.36 15.31 5.76 18.85 2.52 20.45 0.68 17.74 3.36 15.31"/><polygon class="cls-1" points="17.57 5.66 19.97 9.2 22.65 6.77 20.81 4.06 17.57 5.66"/></g></g></svg>