<?xml version="1.0" encoding="UTF-8"?>
<svg id="Layer_1" data-name="Layer 1" xmlns="http://www.w3.org/2000/svg" viewBox="0 0 154 46">
  <defs>
    <style>
      .cls-1 {
        stroke-width: .25px;
      }

      .cls-1, .cls-2 {
        stroke: #000;
        stroke-miterlimit: 10;
      }

      .cls-1, .cls-2, .cls-3 {
        fill: #fff;
      }

      .cls-2 {
        stroke-width: .5px;
      }

      .cls-4, .cls-5, .cls-3 {
        stroke-width: 0px;
      }

      .cls-5 {
        fill: #ce7432;
      }
    </style>
  </defs>
  <g>
    <g>
      <path class="cls-4" d="m64.79,23.8c-3.29,0-5.43-2.45-5.43-5.74s2.12-5.77,5.43-5.77c2.59,0,4.39,1.49,4.87,4.17l-2.81.11c-.25-1.32-1.02-2.06-2.12-2.06-1.75,0-2.59,1.49-2.59,3.55s.84,3.52,2.59,3.52c1.16,0,1.92-.79,2.14-2.2l2.82.09c-.46,2.77-2.25,4.33-4.9,4.33Z"/>
      <path class="cls-4" d="m74.88,15.15c2.64,0,3.94,1.21,3.94,3.61v2.34c0,.6.25.7.53.7h.28v1.75l-.37.03c-.43.02-2.33.31-2.6-1.27-.43.88-1.36,1.43-2.93,1.43-1.67,0-2.95-.9-2.95-2.36s1.1-2.09,3.13-2.5l2.2-.45c0-1.13-.39-1.66-1.24-1.66-.71,0-1.15.42-1.29,1.25l-2.67-.11c.31-1.81,1.67-2.77,3.97-2.77Zm-.25,6.95c.9,0,1.52-.68,1.52-2.03v-.08l-1.16.22c-.88.16-1.47.34-1.47,1.07,0,.48.39.82,1.12.82Z"/>
      <path class="cls-4" d="m80.92,15.34h2.59l.05,1.21c.46-.9,1.3-1.39,2.4-1.39,2.28,0,3.52,1.83,3.52,4.29s-1.24,4.29-3.52,4.29c-1.05,0-1.88-.48-2.37-1.36v3.5h-2.67v-10.54Zm4.17,6.43c1.1,0,1.63-1.02,1.63-2.33s-.56-2.33-1.63-2.33-1.66,1.07-1.66,2.33.56,2.33,1.66,2.33Z"/>
      <path class="cls-4" d="m90.82,15.34h2.59l.05,1.21c.46-.9,1.3-1.39,2.4-1.39,2.28,0,3.52,1.83,3.52,4.29s-1.24,4.29-3.52,4.29c-1.05,0-1.88-.48-2.37-1.36v3.5h-2.67v-10.54Zm4.17,6.43c1.1,0,1.63-1.02,1.63-2.33s-.56-2.33-1.63-2.33-1.66,1.07-1.66,2.33.56,2.33,1.66,2.33Z"/>
      <path class="cls-4" d="m105.95,23.55l-.05-1.26c-.46,1.05-1.35,1.44-2.4,1.44-1.74,0-2.82-1.16-2.82-3.12v-5.29h2.67v4.37c0,1.26.22,1.95,1.08,1.95s1.27-.7,1.27-1.95v-4.37h2.68v8.22h-2.43Z"/>
      <path class="cls-4" d="m114.25,17.13c-1.04,0-1.63.84-1.63,2.31s.59,2.31,1.63,2.31c.81,0,1.38-.5,1.5-1.53l2.74.09c-.22,2.11-1.91,3.43-4.25,3.43-2.64,0-4.37-1.71-4.37-4.29s1.74-4.29,4.37-4.29c2.28,0,3.98,1.27,4.2,3.35l-2.74.12c-.12-.98-.7-1.49-1.46-1.49Z"/>
      <path class="cls-4" d="m123.83,17.13c-1.04,0-1.63.84-1.63,2.31s.59,2.31,1.63,2.31c.81,0,1.38-.5,1.5-1.53l2.74.09c-.22,2.11-1.91,3.43-4.25,3.43-2.64,0-4.37-1.71-4.37-4.29s1.74-4.29,4.37-4.29c2.28,0,3.98,1.27,4.2,3.35l-2.74.12c-.12-.98-.7-1.49-1.46-1.49Z"/>
      <path class="cls-4" d="m129.22,12.55h2.76v1.8h-2.76v-1.8Zm2.71,2.79v8.22h-2.67v-8.22h2.67Z"/>
      <path class="cls-4" d="m136.03,15.34l.08,1.29c.45-1.08,1.35-1.47,2.43-1.47,1.75,0,2.84,1.16,2.84,3.12v5.29h-2.68v-4.39c0-1.24-.2-1.94-1.1-1.94s-1.29.7-1.29,1.94v4.39h-2.67v-8.22h2.39Z"/>
      <path class="cls-4" d="m142.7,19.44c0-2.59,1.74-4.29,4.37-4.29s4.37,1.71,4.37,4.29-1.74,4.29-4.37,4.29-4.37-1.71-4.37-4.29Zm4.37,2.31c1.04,0,1.63-.84,1.63-2.31s-.59-2.31-1.63-2.31-1.63.84-1.63,2.31.59,2.31,1.63,2.31Z"/>
    </g>
    <g>
      <path class="cls-4" d="m60.17,30.3l.03.8c.24-.62.78-.91,1.43-.91,1.07,0,1.58.78,1.58,1.77v3h-.76v-2.79c0-.85-.28-1.31-.98-1.31-.74,0-1.22.46-1.22,1.31v2.79h-.76v-4.67h.69Z"/>
      <path class="cls-4" d="m66.32,30.19c1.02,0,1.95.66,2.02,2.33v.34s-3.36,0-3.36,0c.07.93.55,1.48,1.34,1.48.49,0,.94-.28,1.15-.77l.81.06c-.27.88-1.07,1.43-1.96,1.43-1.29,0-2.14-.95-2.14-2.44s.84-2.44,2.14-2.44Zm1.21,2.01c-.13-.97-.65-1.29-1.21-1.29-.73,0-1.2.48-1.32,1.29h2.53Z"/>
      <path class="cls-4" d="m73.66,34.13l1.1-3.83h.81l-1.43,4.67h-.95l-1.03-3.52-1.03,3.52h-.95l-1.44-4.67h.81l1.1,3.83,1.1-3.83h.81l1.1,3.83Z"/>
      <path class="cls-4" d="m79.88,29.24v1.06h1.25v.67h-1.25v2.75c0,.39.19.58.55.58h.68v.67h-.68c-.84,0-1.31-.45-1.31-1.25v-2.75h-.68v-.67h.68v-1.06h.76Z"/>
      <path class="cls-4" d="m83.86,30.19c1.21,0,1.88.7,1.88,1.95v1.87c0,.19.09.28.28.28h.19v.67h-.33c-.48,0-.9-.15-.9-.71-.19.42-.7.82-1.44.82-.92,0-1.68-.49-1.68-1.33,0-.97.72-1.21,1.76-1.41l1.36-.26c0-.78-.38-1.15-1.13-1.15-.58,0-.97.29-1.11.82l-.8-.06c.18-.91.92-1.48,1.91-1.48Zm-.21,4.21c.76,0,1.36-.53,1.36-1.62v-.04l-1.09.19c-.69.12-1.25.16-1.25.81,0,.36.31.66.99.66Z"/>
      <path class="cls-4" d="m87.99,28.71v2.18c.25-.43.8-.7,1.43-.7,1.21,0,1.97.94,1.97,2.44s-.76,2.44-1.97,2.44c-.65,0-1.21-.29-1.47-.76l-.03.65h-.69v-6.25h.76Zm1.27,5.63c.82,0,1.34-.66,1.34-1.72s-.52-1.75-1.34-1.75-1.34.68-1.34,1.75.52,1.72,1.34,1.72Z"/>
      <path class="cls-4" d="m94.04,30.92c-.51,0-.92.25-.92.7s.61.64,1.1.74c1.06.2,1.84.49,1.84,1.43s-.94,1.29-1.82,1.29c-1.11,0-1.95-.61-2.02-1.58l.79-.05c.1.55.54.91,1.23.91.44,0,1.03-.14,1.03-.62,0-.55-.65-.61-1.18-.73-.84-.19-1.76-.43-1.76-1.35s.72-1.46,1.8-1.46c.93,0,1.7.59,1.85,1.5l-.79.05c-.11-.52-.62-.83-1.14-.83Z"/>
      <path class="cls-4" d="m97.34,36.33h-.44l.34-1.36h-.36v-.97h.96v.97l-.5,1.36Z"/>
      <path class="cls-4" d="m103.01,30.92c-.85,0-1.35.64-1.35,1.72s.49,1.72,1.35,1.72c.58,0,1.08-.38,1.19-1.04l.8.05c-.15,1.06-1,1.71-1.99,1.71-1.29,0-2.14-.95-2.14-2.44s.84-2.44,2.14-2.44c.95,0,1.82.62,1.95,1.62l-.79.05c-.1-.6-.6-.95-1.15-.95Z"/>
      <path class="cls-4" d="m107.77,30.19c1.21,0,1.88.7,1.88,1.95v1.87c0,.19.09.28.28.28h.19v.67h-.33c-.48,0-.9-.15-.9-.71-.19.42-.7.82-1.44.82-.92,0-1.68-.49-1.68-1.33,0-.97.72-1.21,1.76-1.41l1.36-.26c0-.78-.38-1.15-1.13-1.15-.58,0-.97.29-1.11.82l-.8-.06c.18-.91.92-1.48,1.91-1.48Zm-.21,4.21c.76,0,1.36-.53,1.36-1.62v-.04l-1.09.19c-.69.12-1.25.16-1.25.81,0,.36.31.66.99.66Z"/>
      <path class="cls-4" d="m112.85,28.71h.72v.67h-.72c-.3,0-.51.24-.51.62v.29h1.79v-.29c0-.78.4-1.29,1.27-1.29h.72v.67h-.72c-.3,0-.51.24-.51.62v.29h1.17v.67h-1.17v4h-.76v-4h-1.79v4h-.76v-4h-.62v-.67h.62v-.29c0-.78.4-1.29,1.27-1.29Z"/>
      <path class="cls-4" d="m118.78,30.19c1.02,0,1.95.66,2.02,2.33v.34s-3.36,0-3.36,0c.07.93.55,1.48,1.34,1.48.49,0,.94-.28,1.15-.77l.81.06c-.27.88-1.07,1.43-1.96,1.43-1.29,0-2.14-.95-2.14-2.44s.84-2.44,2.14-2.44Zm1.21,2.01c-.13-.97-.65-1.29-1.21-1.29-.73,0-1.2.48-1.32,1.29h2.53Z"/>
      <path class="cls-4" d="m121.73,28.71h.79v.85h-.79v-.85Zm.78,1.58v4.67h-.76v-4.67h.76Z"/>
      <path class="cls-4" d="m124.47,30.3l.03.8c.24-.62.78-.91,1.43-.91,1.07,0,1.58.78,1.58,1.77v3h-.76v-2.79c0-.85-.28-1.31-.98-1.31-.74,0-1.22.46-1.22,1.31v2.79h-.76v-4.67h.69Z"/>
      <path class="cls-4" d="m130.6,30.19c1.21,0,1.88.7,1.88,1.95v1.87c0,.19.09.28.28.28h.19v.67h-.33c-.48,0-.9-.15-.9-.71-.19.42-.7.82-1.44.82-.92,0-1.68-.49-1.68-1.33,0-.97.72-1.21,1.76-1.41l1.36-.26c0-.78-.38-1.15-1.13-1.15-.58,0-.97.29-1.11.82l-.8-.06c.18-.91.92-1.48,1.91-1.48Zm-.21,4.21c.76,0,1.36-.53,1.36-1.62v-.04l-1.09.19c-.69.12-1.25.16-1.25.81,0,.36.31.66.99.66Z"/>
      <path class="cls-4" d="m134.75,29.24v1.06h1.25v.67h-1.25v2.75c0,.39.19.58.55.58h.68v.67h-.68c-.84,0-1.31-.45-1.31-1.25v-2.75h-.68v-.67h.68v-1.06h.76Z"/>
      <path class="cls-4" d="m138.75,30.19c1.02,0,1.95.66,2.02,2.33v.34s-3.36,0-3.36,0c.07.93.55,1.48,1.34,1.48.49,0,.94-.28,1.15-.77l.81.06c-.27.88-1.07,1.43-1.96,1.43-1.29,0-2.14-.95-2.14-2.44s.84-2.44,2.14-2.44Zm1.21,2.01c-.13-.97-.65-1.29-1.21-1.29-.73,0-1.2.48-1.32,1.29h2.53Z"/>
      <path class="cls-4" d="m145.76,34.96h-.69l-.03-.65c-.26.47-.82.76-1.47.76-1.21,0-1.97-.94-1.97-2.44s.76-2.44,1.97-2.44c.62,0,1.17.27,1.43.7v-2.18h.76v6.25Zm-2.02-.62c.82,0,1.34-.66,1.34-1.72s-.52-1.75-1.34-1.75-1.34.68-1.34,1.75.52,1.72,1.34,1.72Z"/>
    </g>
  </g>
  <g>
    <path class="cls-2" d="m47.69,14.72c4-.29,9.91-.38,9.71,5.02s-5.32,8.7-10.04,9.64l.98-3.58c3.12-.43,5.69-3.05,5.89-6.22.25-4.02-3.82-3.66-5.89-2.39l-.65-2.47Z"/>
    <path class="cls-2" d="m47.69,11.64c4.56,18.9-6.52,33.23-21.5,33.56-16.29.35-23.46-14.8-23.46-28.34"/>
    <path class="cls-1" d="m48.66,15c-.35-7.9-10.56-14.25-23.12-14.25S2.4,7.32,2.4,15.41s10.35,14.66,23.13,14.66,22.77-6.34,23.12-14.25c0-.14,0-.28,0-.41s0-.28,0-.41Z"/>
    <path class="cls-5" d="m47.36,15.23c0,.12,0,.25,0,.38-.33,7.2-9.88,12.98-21.63,12.98S4.08,22.6,4.08,15.23,13.76,1.87,25.72,1.87s21.31,5.78,21.63,12.98c0,.12,0,.25,0,.38Z"/>
    <path class="cls-3" d="m27.16,25c-2.47,0-2.13.06-3.05.06.56,0,.83-.05.05-.05.97,0-.79-.16.48-.16-.81,0-2.18-.36-3.34-.36-.02,0-1.3-.46,1.39-.46-2.18,0-1.57-.57-3.09-.57-.73,0,.11-.69-1.36-.69,2.95,0,.19-.99-.26-.99,2.29,0,.45-.66-.82-.66,1.83,0,.1-.92,2.68-.92-3.44,0-1.05-1-1.84-1,.47,0,1.03-.91.55-.91-2.13,0-1.41-.97-1.88-.97-1.16,0-1.06-1.04.23-1.04.23,0,1.53-1.01-.77-1.01,2.52,0,.58-1.04-.79-1.04,2.77,0,1.33-1.01,2.1-1.01.32,0-.4-1-.68-1-.07,0,.24-.99.12-.99.11,0,.81-.93.03-.93,1.87,0,1.49-.81.48-.81,1.7,0,2.21-1.02,2.87-1.02.16,0-.24-.67-1.12-.67-.99,0,.34-.68,1.34-.68-.42,0-.65-.51,1.21-.51-1.2,0,1.62-.58-.69-.58,2.55,0,1.22-.38,4-.38.06,0-1.41.03-1.82.03,1.99,0,2.36-.28,1.06-.28.75,0,1.34.09,2.08.09-1.18,0-.45-.09.52-.09,1.3,0,2.71.23,2.2.23-.89,0,.66.27.31.27-.53,0,1.57.13,1.97.13-.14,0,1.05.49,1.32.49-.1,0,.18.63-1.59.63,1.16,0,3.21.82,2.22.82.61,0-1.8.82-1.08.82-.09,0,2.41.85,2.11.85-2.13,0,1.68.89.91.89-.92,0-.47.94-.54.94.34,0-1.13.92.35.92-1.58,0-2.28.29.51.29-3.17,0-2.43-.19-2.83-.19.86,0,.91.18.35.18-1.85,0-3.14-.12-1-.12.27,0-2.59.08-1.78.08.07,0-.49-.97-1.01-.97-.69,0,.37-1.08-.97-1.08,2.51,0-.74-.7,1.51-.7-2.05,0-3.7-.74-.88-.74.13,0-1.95-.16-1.41-.16-2.49,0-1.99.41-3.31.41.45,0,1.02.07-.94.07.67,0,.85.88,1.71.88-1.13,0-3.43.85-2.47.85,1.81,0-.37.93-.42.93-.74,0-1.65,1-.71,1,2.09,0-.62,1.03-.55,1.03,2.28,0,2.64,1.08.15,1.08.47,0-.07,1.07,1.7,1.07-.37,0-1.87,1.06-.11,1.06-1.38,0-.94.95.92.95-2.72,0-.06,1.05-1.5,1.05-.11,0-.31.9,1.37.9,1.35,0,1.11.66,1.02.66.42,0-.64.28.92.28.61,0,.7.05,1.66.05-.38,0-.33-.24,1.77-.24-1.94,0-.48-.17-.36-.17-.81,0,1.37-.69,1.85-.69-.44,0-2.25-.8.76-.8-.19,0-1.21-.86-2.18-.86.96,0,.56-.95,2.56-.95-2.75,0-.85-.02-.92-.02.89,0,1.26.23.62.23,1.4,0,3.53-.04,2.94-.04-2.45,0,.95-.02,1.27-.02-3.06,0,1.08-.22-.07-.22.38,0-2.49,1.15-1.29,1.15-.84,0,.74,1.06-.25,1.06.52,0-1.07.97-1.28.97.86,0-.77.77,1.5.77-.69,0,.21,1.06-1.03,1.06-.05,0-1.23.75-1.4.75-.67,0,1.52.51-1.1.51,1.23,0,1.09.43-1.57.43,2.87,0-.66.62,2.42.62-2.31,0-3.26.24-4.52.24,1.87,0-.13-.09.59-.09,1.82,0-1.55,0-.11,0Z"/>
  </g>
</svg>