<svg xmlns="http://www.w3.org/2000/svg" viewBox="0 0 188.71 95.89"><defs><style>.cls-1{fill:#fff;}.cls-2{fill:#5fb7ff;}</style></defs><title>cslogo</title><g id="Layer_2"><g id="Layer_1-2"><path class="cls-1" d="M59.69,77.35a14.18,14.18,0,0,1,9.54-1.26c2.47.43,6.83,1.18,8.56,3.12-5.22-5.84-14-6.47-21.22-6.64-5.68-.14-10.94,3.32-8.34,9.82,1.74,4.32,6.62,7.73,10.64,9.78,9.74,5,21.89,5.08,31.44-.4,4.54-2.6,10.17-6.9,8.81-12.86-1.14-5-6.22-8.54-10.4-11C81.66,63.81,73.61,60.35,69.19,53c-2.2-3.65-1.1-6.88,2.56-9a30.34,30.34,0,0,1,19.09-3.59,25.52,25.52,0,0,1,5.34,1.71c2.14.94,6.95,3.08,6,6.17-2,6.48-14,5.88-18.84,4.58,5.49,1.46,10.38,2.67,16.14,1.93,3.94-.51,12.16-1.94,13.2-6.75.68-3.19-2.93-5.53-5.38-6.68-12.51-5.87-30.57-6.92-42.47,1-8,5.3-5.25,12.51,1,17.9,6.76,5.83,16.14,8.5,22,15.34l.2.24c4.33,5.27.28,11.25-4.82,14-6.29,3.4-13.08,2.07-19.26-.59a17.25,17.25,0,0,1-6.72-5.08C55.31,81.66,57.32,78.73,59.69,77.35Z"/><path class="cls-1" d="M47.38,38.13a12.9,12.9,0,0,0,6.5-.49c5.17-1.54,10.33-5.71,11.75-11.14.24-.89.16-1.73.88-2.43,2.22-2.14,5.61-3.21,8-5.15,2.87-2.3,5.23-5.47,4.75-9.34-.63-6-5.67-8.59-11-9.34C62.09-.62,56.36,1,50.56,2.93c-2.09.7-3.91,1.8-5.91,2.63-1.8.74-3.51-.93-5.26-1.42C28.6,1.15,13.53-1.78,4,5.88,2.68,6.9.1,9,0,11.91c-.21,6.34,7.33,10,12.28,11.84a60.76,60.76,0,0,0,8.63,2.7c2.5.55,5,.86,7.51,1.43,2.18.51,1.67,2.05,1.65,3.85s0,3.79,0,5.68c0,6.52,2.41,13.68,8.44,17.14a40.17,40.17,0,0,0,17.2,5.07,41.09,41.09,0,0,0,9-.38,11.18,11.18,0,0,0,5.55-2,1.85,1.85,0,0,0,1-1.11c-1.93,1.4-3.66,1.2-6,1.34A42.34,42.34,0,0,1,56.85,57a33,33,0,0,1-8.36-2.16c-5.34-2.21-9.69-6.33-10.75-12.19a22.56,22.56,0,0,1-.25-6.51A29.91,29.91,0,0,1,38,32.86c.22-.91.32-2.7,1.21-3.22a9,9,0,0,1,2.22-.09c1-.11,2-.24,3-.4,3.93-.61,7.8-1.55,11.66-2.49,2-.49,4.15-1.71,6.23-1.62a.48.48,0,0,1,.29.07.41.41,0,0,1,.15.28c.42,1.51-1,4.22-1.93,5.36a19,19,0,0,1-4.91,3.73c-3.31,2.07-8.3,4.92-11.93,2A8.5,8.5,0,0,0,47.38,38.13ZM32,23.84a4.47,4.47,0,0,1-.85,1c-1.36,1.16-5.26.05-6.88-.26a61.38,61.38,0,0,1-7.73-2.22c-4.95-1.61-9.62-7.22-7.38-12.65C11.67,3.7,19.5,3.61,25,4.17c3,.31,6,1.06,9,1.63a17.57,17.57,0,0,1,4.41,1.46c3,1.51,1.21,3.3-.1,5.34S35.77,16.92,34.36,19C33.49,20.23,32.93,22.37,32,23.84Zm27.8-1.23-.25.08c-2.07.7-4.34,1-6.38,1.58-2.31.64-4.68.82-7,1.36A14.61,14.61,0,0,1,40.5,26c-.93-.23,1.93-5.34,2.2-5.84a44.46,44.46,0,0,1,6.15-8.28A4.65,4.65,0,0,1,51.57,10a4,4,0,0,1,1.66.27,13.61,13.61,0,0,1,6.92,5.09,15.29,15.29,0,0,1,2.41,4.89C63,22.08,61.3,22.17,59.82,22.61ZM55,7.48c-.89-1.37,1.64-2.71,2.91-3.31C60.29,3,63.77,1.83,66.43,2.22c2.35.35,4.54.83,6.36,2.5,5.28,4.85-1.2,11.58-5.45,14.17-.39.24-.79.48-1.2.7a.67.67,0,0,1-.52.12c-.22-.07-.29-.33-.34-.55a15.2,15.2,0,0,0-4.06-6.91C59.5,10.45,57.5,9.45,55.54,8A2.12,2.12,0,0,1,55,7.48Z"/><path class="cls-2" d="M84.7,11.61h2.58v8.87h.06a4.83,4.83,0,0,1,1.85-1.82,5.36,5.36,0,0,1,2.65-.73c1.9,0,5,1.17,5,6.07v8.46H94.21V24.3c0-2.29-.85-4.23-3.29-4.23a3.71,3.71,0,0,0-3.46,2.58,3.12,3.12,0,0,0-.18,1.24v8.57H84.7Z"/><path class="cls-2" d="M113.86,25.24c0,5.25-3.64,7.54-7.08,7.54-3.84,0-6.81-2.82-6.81-7.31,0-4.75,3.11-7.54,7-7.54S113.86,20.89,113.86,25.24Zm-11.28.14c0,3.12,1.79,5.46,4.32,5.46s4.32-2.32,4.32-5.51c0-2.41-1.21-5.47-4.26-5.47S102.58,22.68,102.58,25.38Z"/><path class="cls-2" d="M127.25,31.93a9.57,9.57,0,0,1-4.08.82c-4.29,0-7.08-2.9-7.08-7.25A7.22,7.22,0,0,1,123.73,18a8.72,8.72,0,0,1,3.58.73l-.59,2a5.92,5.92,0,0,0-3-.68c-3.26,0-5,2.41-5,5.37,0,3.29,2.11,5.32,4.93,5.32a7.24,7.24,0,0,0,3.17-.71Z"/><path class="cls-2" d="M143.13,25.24c0,5.25-3.64,7.54-7.07,7.54-3.85,0-6.81-2.82-6.81-7.31,0-4.75,3.11-7.54,7-7.54C140.37,17.93,143.13,20.89,143.13,25.24Zm-11.27.14c0,3.12,1.79,5.46,4.32,5.46s4.31-2.32,4.31-5.51c0-2.41-1.2-5.47-4.26-5.47S131.86,22.68,131.86,25.38Z"/><path class="cls-2" d="M146.4,11.61H149V32.46H146.4Z"/><path class="cls-2" d="M161.19,32.46l-.2-1.79h-.09a5.3,5.3,0,0,1-4.34,2.11,4,4,0,0,1-4.35-4.08c0-3.43,3-5.31,8.54-5.28v-.3c0-1.17-.32-3.29-3.23-3.29a7.08,7.08,0,0,0-3.69,1.06l-.59-1.7a8.85,8.85,0,0,1,4.67-1.26c4.34,0,5.4,3,5.4,5.81v5.31a20.7,20.7,0,0,0,.23,3.41Zm-.38-7.25c-2.82-.06-6,.44-6,3.2a2.29,2.29,0,0,0,2.44,2.46,3.54,3.54,0,0,0,3.44-2.37,3,3,0,0,0,.14-.83Z"/><path class="cls-2" d="M170.59,14.17v4.08h3.7v2h-3.7v7.66c0,1.76.5,2.76,1.94,2.76a5.67,5.67,0,0,0,1.5-.18l.11,1.94a6.19,6.19,0,0,1-2.29.35,3.57,3.57,0,0,1-2.78-1.08c-.74-.77-1-2-1-3.7V20.22h-2.2v-2h2.2V14.84Z"/><path class="cls-2" d="M178.64,25.82c.06,3.5,2.29,4.94,4.87,4.94a9.38,9.38,0,0,0,3.94-.74l.44,1.85a11.55,11.55,0,0,1-4.73.88c-4.37,0-7-2.87-7-7.16s2.53-7.66,6.67-7.66c4.64,0,5.87,4.08,5.87,6.69a9.38,9.38,0,0,1-.09,1.2ZM186.21,24c0-1.64-.67-4.19-3.58-4.19-2.61,0-3.76,2.4-4,4.19Z"/><path class="cls-2" d="M104.34,65h2.58V73.9H107a4.76,4.76,0,0,1,1.85-1.82,5.2,5.2,0,0,1,2.64-.74c1.91,0,5,1.18,5,6.08v8.45h-2.59V77.71c0-2.29-.85-4.23-3.29-4.23a3.71,3.71,0,0,0-3.46,2.59,3,3,0,0,0-.18,1.23v8.57h-2.58Z"/><path class="cls-2" d="M133.5,78.65c0,5.26-3.64,7.55-7.08,7.55-3.85,0-6.81-2.82-6.81-7.31,0-4.76,3.11-7.55,7-7.55S133.5,74.31,133.5,78.65Zm-11.28.15c0,3.11,1.79,5.46,4.32,5.46s4.31-2.32,4.31-5.52c0-2.41-1.2-5.46-4.25-5.46S122.22,76.1,122.22,78.8Z"/><path class="cls-2" d="M136.76,76.3c0-1.82-.06-3.29-.12-4.64H139l.12,2.44h.06a5.58,5.58,0,0,1,5.05-2.76c3.43,0,6,2.91,6,7.22,0,5.11-3.11,7.64-6.45,7.64A5,5,0,0,1,139.37,84h-.06v7.72h-2.55Zm2.55,3.79a5.82,5.82,0,0,0,.12,1.06,4,4,0,0,0,3.88,3c2.73,0,4.31-2.23,4.31-5.49,0-2.85-1.5-5.28-4.23-5.28a4.12,4.12,0,0,0-3.9,3.2,4.05,4.05,0,0,0-.18,1.05Z"/><path class="cls-2" d="M153.47,76.3c0-1.82-.06-3.29-.12-4.64h2.32l.12,2.44h.05a5.59,5.59,0,0,1,5-2.76c3.44,0,6,2.91,6,7.22,0,5.11-3.11,7.64-6.46,7.64A5,5,0,0,1,156.08,84H156v7.72h-2.55ZM156,80.09a5.82,5.82,0,0,0,.12,1.06,4,4,0,0,0,3.87,3c2.73,0,4.32-2.23,4.32-5.49,0-2.85-1.5-5.28-4.23-5.28a4.12,4.12,0,0,0-3.9,3.2,4.05,4.05,0,0,0-.18,1.05Z"/><path class="cls-2" d="M171.61,79.24c.06,3.49,2.29,4.93,4.88,4.93a9.35,9.35,0,0,0,3.93-.73l.44,1.85a11.51,11.51,0,0,1-4.73.88c-4.37,0-7-2.88-7-7.17s2.52-7.66,6.66-7.66c4.64,0,5.87,4.08,5.87,6.7,0,.52-.06.93-.08,1.2Zm7.58-1.85c0-1.64-.68-4.2-3.58-4.2-2.62,0-3.76,2.41-4,4.2Z"/></g></g></svg>