<svg xmlns="http://www.w3.org/2000/svg" xmlns:xlink="http://www.w3.org/1999/xlink" viewBox="0 0 210.59 101.56"><defs><style>.cls-1,.cls-4,.cls-5,.cls-6{stroke:#98812f;}.cls-1,.cls-4,.cls-6{stroke-width:0.5px;}.cls-1{fill:url(#radial-gradient);}.cls-2{fill:#b88b2d;}.cls-3{fill:#faad2e;}.cls-4,.cls-5{fill:none;}.cls-6{fill:url(#radial-gradient-2);}.cls-7{fill:#030303;}</style><radialGradient id="radial-gradient" cx="39.35" cy="37.96" r="38.41" gradientUnits="userSpaceOnUse"><stop offset="0" stop-color="#ffd04b"/><stop offset="0.24" stop-color="#fcd83d"/><stop offset="0.7" stop-color="#f8e528"/><stop offset="1" stop-color="#f6ea20"/></radialGradient><radialGradient id="radial-gradient-2" cx="182.53" cy="74.49" r="27.32" xlink:href="#radial-gradient"/></defs><title>houstons</title><g id="Layer_2"><g id="Layer_1-2"><path class="cls-1" d="M42.28,16.24l.4-1.6.41-2.58.72-2.17.8-2.81,1.21-2.33.88-1.69.81-.88h2l.56.64.32,1.29v.64l.48.08.72-1,.48-1,1.05-.24h1l.57.48V3.3l.64,1V6.12l.4,1.52-.4,1.57-.24,1.33-.16,1-.32.81.56.24,1-.73.72-.56,1-.64,1.05-.24.64.48.72.24v1l-.4.48-.32,1.2-.32,1-.08.88-.49,1.05-.56.88-.48.88-.56.73-.24.88-.65.56-.64.81h.57l1-1,1-.48.81-.72,1.36-.72,1-.57,1.85-1.12,1.61-.65,1.29-.4,1.28-.4,1.29-.16h1l.73.4.48.56.4.73v1l-.56.65-1.21,1.12-1.2,1-1.29,1-1,.64-1,.56-.4.49,1.13-.33,1-.32,1.85-.32L69.77,22l1.36-.32,1.13.32.48.32.32,1.13v.88l-.4,1-.8.49-.73.72-.88.48-1.2,1-1.62.8-1,.56-1.6.81-2.18.4-1.2.48H61l-.81.72h3.94l2.73-.32h1.77l1.77.32.8.4,1.85.33h2.41l.89.64.8.32.68.41.61.4V36.5l-.61.72-.68.87H76l-1.52.49h-8l-1.29.33,1,.32,1.61.4,1.92.8h1.21l1.37,1.29,1.44.64,1,.56.89.65.64.48.72.4.4.81-.4,1-.4.64-.48.89.08.72h.63l.17.89-.48,1-.49.73-.64.64-.88.49H69.68l-.23.48.64.4,1,1.2.16,1-.08.8-.72,1,.16,1h-.88l-1.53-.72L67,56.83l-.72-.4h-.88l-1.29-.73-1.21-1.12-1.36-.72-1.21-1-1-.4v.72l.24,1,.8.48,1.13,1,.4.79,1,.89,1,.88,1,1.21.81,1,1,.89.55,1,.57.81.4.56.08,1.13-.08,1-.72.48H67l-1.6.32-1.21-.88-2.09-1.13-1.69-1.28-1.12-.64-1.37-1.21-1.45-1L54.82,58l-1.29-1.12-1-1.77-.89-1.77-.88-1.28L50.24,51l-.49-1-.88-.41-.32.41.16.56.16.8.56.57.73,1.2.48.81.64,1.12.89,1.45.4,1,.56.8.48,1.29L54,61l.47.8.57,1.53.48,1.45.33,1.28.47.4.08,1.29.16,1.36v1.45l.33.88-.64.81L56,72.9h-.56l-.16.73H53.85l-.56-1-.72-.4L51.68,71,51,70l-1-1.85L49.27,67l-.48-1.44-.89-1.69-.23-1.2-.73.15.16,1v2a9.29,9.29,0,0,1,.08,2.17,6.64,6.64,0,0,0,.09,1.85L47,71.54l-.56,2.09-.64,1-.4.57a2.35,2.35,0,0,1-.57.4,17.41,17.41,0,0,1-1.92,0l-.65-.4-.48-1.46-.72-1.28-.49-2.33L40,67.52V61.65l-.61-.72-.43,1v2.17l-.65,1.53v1.29l-.72,1.92v.73l-.8,1.52-.73.81-.64.88v.89l-1.21.56-.8-.16-.88-.64-1-1.13V63.34l-.88,1.29-.81,1.68-.64,1L28,68.65l-.72.8-1.12.48-.89-.32-.88-.25-1-.15-.88-.73-.8-.56-.65-1.21V65l1.37-2.58.72-1L24.2,60l.56-1-.88.16-1.05,1.05-1,.88a14,14,0,0,1-1.69,1,4.35,4.35,0,0,0-1.05.8l-1.76,1.37-1.53.41-1.2.64-1.21.08-.56-.64v-.89l-.81.08v-2l.65-1.45,1-1.12,1.05-1L15.68,57l.56-.72-1,.24-.72.64-.88.65-1.13.55-1,.09-1,.08-1-.81-.48-1V55.3l.64-1.2.89-1.29,1.2-1.21,1.29-1.44,1-.88.81-.81,1.12-.73-.24-.56-1.2.25-1.13.88-.8.48-.89.4-1.12.25-.81.48-.72.32-1.45.08L6,50.39l-.73-.07-.8-.49s-.81-.72-.73-.8a13.05,13.05,0,0,0,0-1.77L5.63,45.9l1-.57,1.45-.8L8.77,44H7l-.8-.56-.81-.17-.48-1,.32-.8,1.29-1,1.2-.88,1.85-.62,1.21-.84h1l1-.39,1.28-.08,1-.48.16-.48-.56-.41s-1.13.17-1.37.17-1.53-.17-1.53-.17h-.88l-1-.4-1.12-.4-1.13-.32-.88-.4-1.53-.65L4.11,33.6l-1.05-.8-1-.57-.57-.47-.88-.33L.25,30.31V29.18l1.6-.64H3.38l1.21-.08L6,28.38l1.69-.24,1,.08,1-.16.73.08,1.28.08.64-.48-1-.33-1-1-1.13-.56-1.12-1-1-1-.72-1.05-.16-1,.32-1.05,1-.24H9.09l1.05.16.8.33,1.2.16.73.32,1,.64.81.24.72.56,1.37.24.8.41,1,.56.8.32.57-.64-.48-.73-.89-1-1.29-.56-1-1.13L15,19.46l-.89-1-1-1.36-.81-1.37-.56-1.12-.24-1.13-.08-1.29.64-.64.48-.64,2,.48,1.29.88,1.13.41.48.64.64.4.65.56,1,.41.48.48.4,1h.72L22,17l.48.57.56.32.4.56.17-1-.89-1-.48-1.12-.4-.88-.89-1.29-.56-2.09L20,9.65l-.48-1.28-.25-1.13.17-1.44.24-1.45,1.05-.56.88-.08,1.2.8.56,1,.49,1,.8,1,1.05,1.21.48,1,.32.81.4,1.2.4.81.89.48.32.8s.24.57.48.48.88.25.88.25l.17-.73-.65-1.44-.24-1.53-.56-1.45L28.3,8.13l.08-1.45-.24-1.77V3.46l.64-1.28,1.53-.48.88.72,1,.81.65,1L33,5.63l.48,1,.56.88.16,1.13L35,8.61l-.08-1.53-.08-1.77.24-1.2.56-2L36,.94,37.06.25h2.29l.76,1.2.73,2,.39,2.17L41.56,7l.16,1.69-.08,1.69v1L41.72,13l.16,1.45-.08,1Z"/><path class="cls-2" d="M40,53.7l.8-1.94v-1l1.45-.4,1,.32,1.37-.32,1.13-.56,1-.57.8-.64.31.48,1,.56V48.23l.32-.73.8-.8.89-1.12v-1l.56-1.2.64-.64L53.37,42V37.46h.89l.48-.64-1-.4-1.12-1.61.4-1.37-.64-.56-.33-1.29L52,30.47,51.84,30l.89-.73-.4-.32H51l-.64-.48v-.81l-.65-.56h-1v-.88l-.81-.4h-.56l-.64-.73-.64-.4-.72.72-.65-.72-.8-.72h-.8l-.89-.73-.4-.88-1.21.32-1.17.16-.84.32-.64-.8-.56-.56s.16.64,0,.88a6.35,6.35,0,0,0-.4,1l-.73.48-.88-.4-.56-.65-.73-.4v1.53l-.56.64-1.13.24-.64.73-1,.24-.72-.73-.41-.56v3.62l-.4.16s-.88-.48-1-.16-.4,1.2-.4,1.2v2.26l-.81.4s-.64-.16-.8.08-.81-.24-.81-.24V33l.89.4.64.64.24.57s-.08.64-.32.72-.4,1.21-.4,1.21l-.48,1.16.32.93.32,1,.24,1L27,41.8l.32.64.4,1.37,1.21.32.56,1.13L28.3,45l-1,1,1,.16L29.66,46l1.21.48.8.56.72.64.73.57-.08.4.88.08.81.24.64.56.16.81.72-.4,1,.47,1,.25,1.09.08.76-.33v1.13Z"/><path class="cls-3" d="M33.19,46.11l.74.37,1,.66,1.26.38H37l.52.8.74.38,1.14.29h1.22l1.63-.36.88-.75,1.19-.33h1.1l1-.77.74-.37,1-.3.73-.81.67-.3.3-1v-1l.51-.81.52-.67v-.74l.74-.89V35.69l-.74-1.18.07-1.11.15-.74L50.56,32,50,30.74l-.82-.81-.52-1.48-1.32-.37-.82-.67-.59-.81-.81-.3-.74-.52h-2l-1.07.52-.45-.89H38.58l-.59.37-.44-.37h-.82l-1.11.3-1.1.15-1.33.44-.82,1-.51.81-.45.45H31l-.59.74-.3.36-.51.89.29,1.11-.59,1-.67-.15v1.7l-.36.52v2.48l.36.66-.36.85v.89l.44,1s.15.52.37.59.59,1.11.59,1.11l.59.66L30.9,44l.66.22.67.67.29.59Z"/><polyline class="cls-4" points="26.69 39.63 25.06 40.09 24.04 40.72 22.07 41.19 20.81 41.66 19.16 42.05 18.06 42.45 16.96 42.84 14.76 43.31 13.42 43.31 10.75 44.02 8.77 43.97"/><polyline class="cls-4" points="25.48 32.72 23.72 32.06 21.76 31.36 19.55 30.96 17.73 30.41 16.33 29.71 14.37 29.08 13.03 28.53 12.01 28.53"/><polyline class="cls-4" points="29.02 24.44 27.9 23.34 27.1 22.16"/><polyline class="cls-4" points="33.79 23.3 33.32 22.16 32.92 20.74 32.22 19.64"/><polyline class="cls-4" points="39.91 60.46 39.91 58.72 40.11 56.44 40.11 55.11 40.21 53.06"/><polyline class="cls-4" points="41.89 21.47 41.89 20.11 42.6 17.91 42.28 16.24"/><polyline class="cls-5" points="29.56 14.41 30.33 15.47 30.8 16.24"/><polyline class="cls-4" points="69.41 51.8 67.92 50.78 66.42 49.19 64.85 48.11 62.49 46.69 60.29 45.27 56.67 43.39 54.74 42.21 57.07 42.84 59.35 44.02 61.47 44.49 63.91 45.27 65.8 46.22 68 47.63 69.89 48.11 72.41 48.74 73.58 48.5 75.63 48.42"/><polyline class="cls-4" points="60.2 31.83 59.19 32.72 57.85 32.72 56.44 33.56 54.74 33.56 53.92 33.56"/><polyline class="cls-4" points="55.54 21.47 54.74 22.16 53.92 23.89 52.43 24.93 51.93 26.09 50.54 26.8"/><path class="cls-6" d="M184.62,59l.28-1.14.29-1.83.51-1.54.57-2,.86-1.66.63-1.2.57-.63h1.43l.4.46.23.91v.46l.34.06.52-.75.34-.74.74-.17H193l.4.34v.23l.46.74v1.26l.28,1.09L193.88,54l-.17,1-.12.74-.23.57.4.17.69-.51.51-.4.75-.46.74-.17.46.34.51.17v.69l-.29.34-.22.86-.23.69-.06.62-.34.75-.4.62-.35.64-.4.51-.17.63-.45.4-.46.57h.4l.74-.68.69-.35.57-.51,1-.52.68-.4,1.32-.8,1.14-.46.92-.28.91-.29.92-.11H204l.52.28.34.4.29.52v.74l-.4.46-.86.8-.86.74-.91.69-.69.46-.74.4-.29.34.8-.23.69-.23,1.31-.23,1-.34,1-.23.8.23.34.23.23.8v.63l-.29.74-.57.34-.51.52-.63.34-.86.69L202.5,68l-.74.4-1.14.57-1.54.29-.86.34h-.29l-.57.51h2.81l1.94-.23h1.25l1.26.23.57.29,1.32.23h1.71l.63.45.57.23.49.29.43.28v1.55l-.43.51-.49.62h-.85l-1.09.36h-5.72l-.91.22.68.23,1.15.29,1.37.57h.86l1,.91,1,.46.74.4.63.46.46.34.51.29.29.57-.29.74-.28.46-.35.63.06.51h.46l.11.63-.34.68-.34.52-.46.46-.63.34h-3.37l-.17.34.45.29.75.86.11.68-.06.57-.51.69.11.74h-.63l-1.08-.51-.86-.4-.51-.29h-.63l-.91-.51-.87-.8-1-.52-.85-.74-.75-.28v.51l.18.69.57.34.8.69.28.57.69.63.68.62.75.86.57.69L202,91l.39.69.4.57.29.4.06.8-.06.75-.51.34h-.41l-1.14.23-.85-.63-1.49-.8-1.2-.91-.8-.46-1-.86-1-.69-1.15-1.65-.91-.8-.69-1.26-.63-1.26-.62-.91-.4-.8-.35-.69-.63-.29-.23.29.12.4.11.57.4.4.52.86.34.57.46.8.63,1,.28.74.4.58.35.91.28,1,.34.57.41,1.09.34,1,.23.91.34.29.06.91.11,1v1l.23.63-.46.57-.17.46H194l-.11.52h-1l-.4-.75-.52-.29L191.3,98l-.45-.69L190.1,96l-.51-.86-.34-1-.63-1.2-.17-.85-.52.11.12.68v1.44a6.29,6.29,0,0,1,0,1.54,4.85,4.85,0,0,0,.06,1.31L188,98.37l-.4,1.49-.46.74-.28.4a1.32,1.32,0,0,1-.4.28,10.34,10.34,0,0,1-1.37,0l-.46-.28-.34-1-.52-.91-.35-1.66L183,95.51V91.34l-.44-.52-.31.69v1.54l-.45,1.09v.91l-.52,1.38v.51L180.73,98l-.51.58-.46.63v.63l-.86.4-.57-.12-.63-.46-.68-.8V92.54l-.63.91-.58,1.2-.45.69-.92,1-.51.57-.8.35L172.5,97l-.63-.18-.69-.11-.62-.51-.58-.4-.45-.86V93.68l1-1.83.51-.68.75-1,.4-.75-.63.12-.75.74-.68.63a10.05,10.05,0,0,1-1.2.69,2.82,2.82,0,0,0-.74.57l-1.26,1-1.09.29-.86.46-.85,0-.4-.46v-.63l-.57.06V91.45l.45-1,.74-.8.75-.74.63-.86.4-.51-.69.17-.51.46-.63.46-.8.4-.69,0-.68.06-.69-.57-.34-.69v-1l.45-.85.64-.92.85-.85.92-1,.68-.63.57-.57.8-.52-.17-.4-.86.17-.8.63-.57.35-.63.28-.79.17-.58.34-.51.23-1,.06-1.2,0-.51,0-.58-.34s-.57-.52-.51-.57a10.48,10.48,0,0,0,0-1.26l1.32-1,.69-.41,1-.56.51-.41h-1.26l-.57-.4-.57-.11-.34-.74.23-.57.91-.69.86-.63,1.31-.44.86-.6h.69l.74-.27.91-.06.69-.34.11-.35-.4-.28s-.8.11-1,.11-1.09-.11-1.09-.11h-.63l-.69-.29-.8-.28-.8-.23-.63-.29-1.08-.45-.8-.35-.75-.57-.74-.4-.4-.34-.63-.23-.23-.8v-.8l1.15-.46H157l.86-.06,1-.06,1.2-.17.69.06.74-.11.52,0,.91.06.46-.34-.75-.23-.68-.68-.8-.41-.8-.68-.69-.74-.51-.75L159,63l.23-.74.69-.17H161l.74.11.58.23.85.11.52.23.68.46.57.17.52.4,1,.17.57.29.69.39.57.24.4-.46-.34-.52-.63-.74-.92-.4L166,62l-.86-.63-.63-.68-.74-1-.57-1-.4-.8-.17-.8-.06-.91.46-.46.34-.46,1.43.35.91.62.81.29.34.46.46.28.45.4.69.29.34.34.29.74h.51l.52.57.34.4.4.24.28.4.12-.69-.63-.69-.34-.8-.29-.62-.63-.92-.4-1.49-.22-1.08-.35-.92-.17-.79.11-1,.17-1,.75-.4.63,0,.85.57.4.74.35.75.57.68.74.86.35.69.22.57.29.85.29.58.62.34.23.57s.17.4.35.34.62.18.62.18l.12-.52-.46-1-.17-1.08-.4-1-.23-.92.06-1L174.56,51V50L175,49l1.09-.34.63.51.74.58.46.68.11,1,.35.74.4.63.11.8.52-.05-.06-1.09-.06-1.26.17-.86.4-1.43.29-.82.74-.49h1.63l.55.86.51,1.42.28,1.55.23,1,.12,1.2-.06,1.2v.69l.06,1.14.11,1-.05.74Z"/><path class="cls-2" d="M183,85.68l.57-1.37v-.74l1-.29.74.23,1-.23.81-.4.74-.4.57-.46.23.35.68.39v-1l.23-.52.57-.57.63-.8v-.74l.4-.86.46-.46.91-.46V74.13h.64l.34-.45-.69-.29-.8-1.14.29-1-.46-.41-.23-.91-.06-.8-.11-.34.63-.52-.29-.23h-.91l-.46-.34v-.57l-.46-.4h-.74v-.63l-.57-.28h-.4l-.46-.52-.46-.28-.51.51-.46-.51-.57-.52h-.57l-.63-.51-.28-.63-.87.23-.83.11L182,64l-.46-.57-.4-.4s.12.46,0,.63a4.09,4.09,0,0,0-.29.74l-.51.34-.63-.28-.4-.46-.51-.28v1.08l-.4.46-.8.17-.46.51-.69.17-.51-.51-.29-.4v2.57l-.28.12s-.63-.35-.69-.12-.28.86-.28.86v1.6l-.58.29s-.45-.12-.57.06-.57-.18-.57-.18V71l.63.29.46.46.17.39s-.06.46-.23.52-.29.86-.29.86l-.34.83.23.65.23.69.17.68.06.86.23.46.28,1,.86.23.4.8-.86-.17-.68.68.68.12,1-.12.86.35.57.4.52.45.51.41-.06.28.63.06.58.17.45.4.12.57.51-.29.74.34.69.18.77.06.55-.24v.81Z"/><path class="cls-3" d="M178.15,80.29l.52.26.69.47.89.27h.63l.37.57.53.27.81.21h.87l1.16-.26.62-.53.85-.24h.78l.69-.55.52-.26.69-.21.52-.58.48-.21.2-.68v-.69l.38-.58.36-.47v-.52l.53-.63V72.87l-.53-.83,0-.79.11-.53-.37-.47-.42-.9-.58-.57-.37-1.06-.94-.26-.58-.47-.42-.58-.58-.21-.52-.37h-1.4l-.76.37-.31-.63H182l-.42.26-.32-.26h-.58l-.79.21-.79.1-.94.32-.58.74-.37.57-.31.32h-.32l-.42.52-.21.27-.36.63.2.79-.42.68-.47-.11v1.21l-.26.37V74l.26.48-.26.6v.63l.31.69s.11.36.27.41.42.79.42.79l.42.48.47.79L177,79l.48.48.21.42Z"/><polyline class="cls-4" points="173.53 75.68 172.37 76 171.64 76.45 170.25 76.78 169.35 77.12 168.17 77.4 167.39 77.68 166.61 77.96 165.04 78.3 164.09 78.3 162.19 78.8 160.78 78.76"/><polyline class="cls-4" points="172.67 70.76 171.42 70.3 170.02 69.8 168.46 69.52 167.16 69.12 166.16 68.62 164.76 68.17 163.81 67.78 163.08 67.78"/><polyline class="cls-4" points="175.19 64.87 174.39 64.09 173.82 63.25"/><polyline class="cls-4" points="178.58 64.06 178.24 63.25 177.96 62.24 177.46 61.46"/><polyline class="cls-4" points="182.93 90.49 182.93 89.26 183.07 87.64 183.07 86.69 183.15 85.23"/><polyline class="cls-4" points="184.34 62.76 184.34 61.8 184.84 60.23 184.62 59.04"/><polyline class="cls-5" points="175.57 57.74 176.12 58.49 176.45 59.04"/><polyline class="cls-4" points="203.91 84.34 202.85 83.61 201.79 82.47 200.67 81.71 198.99 80.7 197.43 79.69 194.85 78.35 193.48 77.51 195.13 77.96 196.76 78.8 198.27 79.13 200 79.69 201.34 80.36 202.91 81.37 204.25 81.71 206.04 82.16 206.88 81.99 208.34 81.93"/><polyline class="cls-4" points="197.36 70.13 196.64 70.76 195.69 70.76 194.69 71.36 193.48 71.36 192.9 71.36"/><polyline class="cls-4" points="194.05 62.76 193.48 63.25 192.9 64.48 191.84 65.22 191.48 66.05 190.49 66.55"/><path class="cls-7" d="M41.11,29.41c.41-.09,1.16-.3,2.27-.61s1.88-.51,2.33-.6c.29-.06.47.08.54.41l.06.29c0,.25,0,.41,0,.49a2.06,2.06,0,0,1-.74.28c-1.16.28-1.9.72-2.08,1.4a10.72,10.72,0,0,0,.44,3.47c.61,2.8.91,4.21,1.52,7,5.48-1.19,8.23-1.72,13.75-2.65-.48-2.83-.72-4.25-1.19-7.08a24.37,24.37,0,0,0-.55-2.64,1.94,1.94,0,0,0-.59-1,2.75,2.75,0,0,0-2.2-.31c-.31.05-.5-.1-.57-.46L54,27.12c-.06-.34.06-.53.35-.58s1-.15,2.22-.28,1.94-.21,2.25-.26,1-.2,2-.43,1.79-.38,2.22-.45.5.1.55.44l.05.29c0,.25,0,.42-.09.49a2.11,2.11,0,0,1-.77.24c-1.11.2-1.85.6-2.09,1.26A10.87,10.87,0,0,0,61,31.33c1.12,7.12,1.69,10.68,2.81,17.8a25.43,25.43,0,0,0,.52,2.67,2.31,2.31,0,0,0,.54,1,3.06,3.06,0,0,0,2.26.3c.29,0,.49.16.54.53l.05.29q.07.51-.39.57l-.89.09a24,24,0,0,0-3,.3c-.35.05-1.07.21-2.15.46s-1.78.42-2.1.48-.46-.09-.52-.43l0-.29c0-.25,0-.41,0-.48a1.72,1.72,0,0,1,.68-.25c1-.23,1.73-.62,1.93-1.29a12,12,0,0,0-.3-3.52c-.61-3.62-.92-5.43-1.53-9.05C54,41.46,51.21,42,45.77,43.17l1.95,9a12.71,12.71,0,0,0,1,3.39A2.19,2.19,0,0,0,51,56a1.37,1.37,0,0,1,.71,0c.11,0,.18.2.24.45l.06.29c.06.33,0,.53-.3.58s-1,.17-2.06.33-1.78.28-2.09.35-.91.24-1.95.55-1.69.5-2,.57-.43-.07-.51-.4l-.07-.29c-.06-.27-.06-.44,0-.5a2.22,2.22,0,0,1,.68-.27c.91-.25,1.51-.68,1.68-1.35a12.66,12.66,0,0,0-.51-3.51c-1.61-7-2.41-10.54-4-17.56-.47-2-.92-3.23-1.34-3.57a1.47,1.47,0,0,0-.86-.35,8,8,0,0,0-1.64.23.48.48,0,0,1-.63-.41l-.07-.29a.46.46,0,0,1,.39-.62c.51-.12,1.29-.27,2.32-.43S40.8,29.48,41.11,29.41Z"/><path class="cls-7" d="M74.74,34.57a6.3,6.3,0,0,1,5.48,2.25,10.68,10.68,0,0,1,2.72,6.54,11.36,11.36,0,0,1-1.58,7.18,6.61,6.61,0,0,1-5,3.43,5.92,5.92,0,0,1-5.19-2.1,11.53,11.53,0,0,1-2.88-6.51,10.75,10.75,0,0,1,1.32-7.21A6.72,6.72,0,0,1,74.74,34.57Zm3.48,3.54A4,4,0,0,0,74.34,36a3.39,3.39,0,0,0-3,2.54A12.91,12.91,0,0,0,71,44.23a13.66,13.66,0,0,0,2.15,6.19c1.08,1.55,2.31,2.24,3.69,2.09a3.46,3.46,0,0,0,2.82-2.35,11.62,11.62,0,0,0,.58-5.61A13.54,13.54,0,0,0,78.22,38.11Z"/><path class="cls-7" d="M96.35,47.3c-.15-3.53-.22-5.29-.37-8.83a6.4,6.4,0,0,0-.51-2.87c-.28-.38-.93-.52-1.92-.46-.2,0-.3-.13-.32-.41l0-.42c0-.23.16-.37.51-.41a37.64,37.64,0,0,0,4.14-1.11l.44.2c0,.93.06,2,.08,3.36.12,3.78.18,5.68.31,9.47a21.52,21.52,0,0,0,.22,3.09.59.59,0,0,0,.58.41,5.64,5.64,0,0,0,1.27-.38,2.82,2.82,0,0,1,0,1.11c-1.68.93-2.52,1.4-4.17,2.35l-.18-.68c0-1.24,0-1.86,0-3.1a19.42,19.42,0,0,1-2.5,3.16,3.44,3.44,0,0,1-2.12.86,3.55,3.55,0,0,1-3.34-1.75A10.63,10.63,0,0,1,87.28,46c-.22-2.94-.33-4.4-.54-7.33a5.63,5.63,0,0,0-.58-2.54,1.56,1.56,0,0,0-1.58-.5,1.24,1.24,0,0,1-.56,0c-.07,0-.11-.16-.13-.35l0-.43c0-.17,0-.28.07-.32a2.7,2.7,0,0,1,.65-.16c.79-.16,2.12-.61,3.91-1.18l.41.19,0,.72c0,.64,0,1,.07,1.61.23,3.6.35,5.39.58,9a10.75,10.75,0,0,0,.64,3.62,2.55,2.55,0,0,0,2.53,1.47C94.12,49.78,95.3,48.94,96.35,47.3Z"/><path class="cls-7" d="M111.26,34.08c-.1,1.55-.15,2.32-.24,3.87h-.78a7.43,7.43,0,0,0-1.14-3,2.21,2.21,0,0,0-1.85-.89,2.41,2.41,0,0,0-1.84.81,2.76,2.76,0,0,0-.73,2,2.6,2.6,0,0,0,.55,1.67,16.66,16.66,0,0,0,2.45,2,11.57,11.57,0,0,1,3,2.86,5.28,5.28,0,0,1,.76,2.94,6.16,6.16,0,0,1-1.49,4.12,4.58,4.58,0,0,1-3.58,1.68,6.06,6.06,0,0,1-3.85-1.48c-.11-1.68-.16-2.52-.27-4.2l.88-.1a8,8,0,0,0,1.39,3.27,2.64,2.64,0,0,0,2.09,1.15,2.19,2.19,0,0,0,1.79-1,3.82,3.82,0,0,0,.74-2.31,3.42,3.42,0,0,0-.64-2,10.15,10.15,0,0,0-2.34-2.11,10.92,10.92,0,0,1-2.74-2.52,5.29,5.29,0,0,1-.83-2.92,5.12,5.12,0,0,1,1.33-3.74,4.61,4.61,0,0,1,3.53-1.49A6.93,6.93,0,0,1,111.26,34.08Z"/><path class="cls-7" d="M113.21,35.26v-.85c1.81-1.78,3.33-3.35,4.56-4.73q.43.11.42.36c0,.22,0,.6-.1,1.12s-.11.94-.15,1.25l-.1,1.06c1.6.05,2.39.08,4,.16.28,0,.45.06.5.13a1.22,1.22,0,0,1,.06.58l0,.55a1,1,0,0,1-.13.57.79.79,0,0,1-.49.08c-1.59-.08-2.38-.11-4-.16-.13,3.94-.2,5.91-.33,9.85a15.12,15.12,0,0,0,.1,3.32,2.13,2.13,0,0,0,.62,1,1.51,1.51,0,0,0,1,.44,1.88,1.88,0,0,0,1.21-.39,2.88,2.88,0,0,0,.89-1.09c.16-.33.26-.5.31-.5l.12.1.32.44a7.9,7.9,0,0,1-1.65,2.94,3,3,0,0,1-2.28.84A2.82,2.82,0,0,1,115.65,51a3.44,3.44,0,0,1-.57-1.38A15.9,15.9,0,0,1,115,47c.09-3.69.14-5.53.23-9.22a6.59,6.59,0,0,0-.14-2.17c-.13-.23-.56-.35-1.3-.37Z"/><path class="cls-7" d="M132.41,33.72A6.25,6.25,0,0,1,137.35,37a10.66,10.66,0,0,1,1.41,6.94,11.36,11.36,0,0,1-2.95,6.74,6.66,6.66,0,0,1-5.56,2.4A5.93,5.93,0,0,1,125.57,50,11.61,11.61,0,0,1,124,43.06a10.78,10.78,0,0,1,2.7-6.82A6.7,6.7,0,0,1,132.41,33.72Zm2.74,4.14a4.06,4.06,0,0,0-3.41-2.79A3.39,3.39,0,0,0,128.31,37a12.77,12.77,0,0,0-1.44,5.48,13.72,13.72,0,0,0,.9,6.49c.77,1.73,1.83,2.65,3.21,2.76A3.42,3.42,0,0,0,134.2,50a11.55,11.55,0,0,0,1.67-5.39A13.74,13.74,0,0,0,135.15,37.86Z"/><path class="cls-7" d="M153.36,55.21q-1.25-.36-1.47-.39c-.14,0-.66-.06-1.57-.1l-1.48-.07c-.22,0-.31-.22-.26-.56l0-.29c0-.25.21-.37.52-.35.84.06,1.39-.12,1.63-.57a2.24,2.24,0,0,0,.31-1c.19-1.14.29-1.7.48-2.85l.88-5.66a10.29,10.29,0,0,0,.18-3.24,2.32,2.32,0,0,0-2.1-1.91A5.1,5.1,0,0,0,146.09,40c-.43,3.25-.64,4.88-1.07,8.13a20.71,20.71,0,0,0-.33,3.9c.15.51.62.83,1.41,1,.3.06.44.23.4.48l0,.3c-.05.33-.19.48-.44.45l-1.41-.34c-.85-.22-1.36-.33-1.5-.35s-.66,0-1.54,0-1.38,0-1.48,0c-.25,0-.35-.21-.31-.55l0-.29c0-.26.22-.37.55-.37.86,0,1.41-.21,1.61-.62a2.31,2.31,0,0,0,.28-1c.15-1.14.23-1.72.38-2.86.29-2.31.43-3.47.72-5.78a9.53,9.53,0,0,0,.11-2.77,4.18,4.18,0,0,0-1.29-1.57v-.55c.92-.44,1.38-.66,2.32-1.09.75-.34,1.28-.58,1.59-.74l.5-.24.15.11c-.18,1.38-.28,2.07-.46,3.45a20.24,20.24,0,0,1,3.52-2.28,4.21,4.21,0,0,1,2.37-.31,3.45,3.45,0,0,1,1.93.94,3.61,3.61,0,0,1,1.06,1.89,12.19,12.19,0,0,1-.17,4.28c-.41,2.51-.62,3.77-1,6.29-.18,1.14-.27,1.71-.44,2.85a1.89,1.89,0,0,0,.13,1.34,2.25,2.25,0,0,0,1.23.74c.31.1.46.26.42.51l0,.29c-.06.33-.22.48-.48.43C154.65,55.58,154.19,55.45,153.36,55.21Z"/><path class="cls-7" d="M160.71,36.75c0-.24-.05-.37-.09-.62l0-.29c0-.12.13-.21.33-.29a6,6,0,0,0,2.29-1.11,2.86,2.86,0,0,0,1.06-1.68,1.66,1.66,0,0,0-.28-1.27,3.87,3.87,0,0,0-.93-.73A2.3,2.3,0,0,1,162,28.32a2.09,2.09,0,0,1,.82-1.37,1.87,1.87,0,0,1,1.51-.32,2.45,2.45,0,0,1,1.85,1.67,5.67,5.67,0,0,1,.23,3.31A6.52,6.52,0,0,1,163.32,36a5,5,0,0,1-2.42,1C160.77,37,160.7,36.93,160.71,36.75Z"/><path class="cls-7" d="M176.46,42.14c-.44,1.49-.66,2.23-1.09,3.71l-.76-.18a7.59,7.59,0,0,0-.46-3.16,2.27,2.27,0,0,0-1.62-1.28,2.41,2.41,0,0,0-2,.39,2.72,2.72,0,0,0-1.16,1.75,2.62,2.62,0,0,0,.17,1.75,16.45,16.45,0,0,0,1.95,2.54,12.08,12.08,0,0,1,2.28,3.45,5.2,5.2,0,0,1,.09,3,6.12,6.12,0,0,1-2.38,3.69,4.62,4.62,0,0,1-3.88.84,6.17,6.17,0,0,1-3.45-2.3c.26-1.67.4-2.5.66-4.16l.89.1a8.11,8.11,0,0,0,.64,3.5,2.65,2.65,0,0,0,1.8,1.59,2.22,2.22,0,0,0,2-.54,3.73,3.73,0,0,0,1.24-2.09,3.4,3.4,0,0,0-.18-2.14,10.16,10.16,0,0,0-1.82-2.58A11,11,0,0,1,167.23,47a5.27,5.27,0,0,1-.17-3,5.13,5.13,0,0,1,2.13-3.35,4.66,4.66,0,0,1,3.8-.67A7,7,0,0,1,176.46,42.14Z"/><path class="cls-7" d="M69.69,65.12l.11,2.8c0,.16,0,.25,0,.26a.16.16,0,0,1-.15.17l-.23.05a.71.71,0,0,1-.26,0l-.06-.17-.07-.31a3.85,3.85,0,0,0-1.46-2.32,4.42,4.42,0,0,0-2.73-.86,5.92,5.92,0,0,0-4.67,2.17,8,8,0,0,0-1.87,5.42,8.87,8.87,0,0,0,1.82,5.64,5.44,5.44,0,0,0,4.42,2.32,5.07,5.07,0,0,0,1.88-.35,3,3,0,0,0,1.33-1A3.23,3.23,0,0,0,68.22,77v-.5a5,5,0,0,0-.14-1.46.93.93,0,0,0-.61-.52,6.93,6.93,0,0,0-1.92-.17.86.86,0,0,1-.41-.06c-.06,0-.08-.12-.08-.25v-.22c0-.25.14-.38.42-.38l3.23.09,2.54-.07c.19,0,.28.09.28.27V74q0,.19-.09.24a.84.84,0,0,1-.36,0c-.57,0-.92.1-1.06.29a3.22,3.22,0,0,0-.2,1.46v3.66a10,10,0,0,1-5.28,1.46A8.37,8.37,0,0,1,56,72.61a9.27,9.27,0,0,1,.57-3.23,7.67,7.67,0,0,1,1.55-2.63,8.4,8.4,0,0,1,3.1-2.18A9.73,9.73,0,0,1,65,63.78,8.89,8.89,0,0,1,69.69,65.12Z"/><path class="cls-7" d="M76.18,80.8l-1.06-.08-1,.08c-.57.06-.92.09-1.06.09s-.28-.1-.28-.29v-.17c0-.14.11-.22.34-.24A1,1,0,0,0,74.31,79V74.33a4.75,4.75,0,0,0-.15-1.56,2.63,2.63,0,0,0-1-.78l0-.32,1.41-.76q.82-.43,1.26-.72l.15.07c0,.1,0,.25,0,.46s0,.51,0,.91,0,.76,0,1.1V73l.34-.5a8.51,8.51,0,0,1,1.45-1.77,2,2,0,0,1,1.29-.5,1,1,0,0,1,.8.33,1.21,1.21,0,0,1,.31.86,1,1,0,0,1-.25.72.79.79,0,0,1-.63.29,1.64,1.64,0,0,1-.7-.24,1.35,1.35,0,0,0-.62-.19,1.08,1.08,0,0,0-.74.3,10.18,10.18,0,0,0-1.06,1.28l-.19.26v3.69l0,1.79a.82.82,0,0,0,.33.66,2.35,2.35,0,0,0,1.08.2c.22,0,.32.1.32.24v.17q0,.2-.06.24a.73.73,0,0,1-.34,0C77.14,80.89,76.77,80.86,76.18,80.8Z"/><path class="cls-7" d="M88.32,74.52h-6c0,.46-.07.77-.07.91a4.66,4.66,0,0,0,1,3,2.93,2.93,0,0,0,2.33,1.27,2.32,2.32,0,0,0,1.14-.31A6.64,6.64,0,0,0,88,78.28l.37.31c-1.06,1.74-2.3,2.61-3.74,2.61a3.49,3.49,0,0,1-2.82-1.46,5.57,5.57,0,0,1-1.16-3.57,7,7,0,0,1,1.2-4A3.76,3.76,0,0,1,85,70.24a3,3,0,0,1,2.82,1.65,4.64,4.64,0,0,1,.47,2.27ZM82.38,74l2.78-.07a2.29,2.29,0,0,0,1.16-.22,1,1,0,0,0,.25-.71,2,2,0,0,0-.52-1.39A1.66,1.66,0,0,0,84.8,71a1.87,1.87,0,0,0-1.49.78A5.17,5.17,0,0,0,82.38,74Z"/><path class="cls-7" d="M97.38,74.52h-6c0,.46-.07.77-.07.91a4.66,4.66,0,0,0,1,3,2.93,2.93,0,0,0,2.33,1.27,2.32,2.32,0,0,0,1.14-.31A6.64,6.64,0,0,0,97,78.28l.37.31c-1.06,1.74-2.3,2.61-3.74,2.61a3.49,3.49,0,0,1-2.82-1.46,5.57,5.57,0,0,1-1.16-3.57,7,7,0,0,1,1.2-4,3.76,3.76,0,0,1,3.2-1.94,3,3,0,0,1,2.82,1.65,4.64,4.64,0,0,1,.47,2.27ZM91.44,74l2.78-.07a2.29,2.29,0,0,0,1.16-.22,1,1,0,0,0,.25-.71,2,2,0,0,0-.52-1.39A1.66,1.66,0,0,0,93.86,71a1.87,1.87,0,0,0-1.49.78A5.17,5.17,0,0,0,91.44,74Z"/><path class="cls-7" d="M108.14,80.8l-1-.08L106,80.8l-1,.09c-.15,0-.23-.1-.23-.29v-.17c0-.14.1-.22.32-.24.58,0,.93-.18,1-.45a1,1,0,0,0,.11-.58l0-1.62V74.31a5.2,5.2,0,0,0-.21-1.82,1.53,1.53,0,0,0-1.54-.89,3.54,3.54,0,0,0-2.71,1.32v4.62a8.75,8.75,0,0,0,.13,2.2c.14.27.49.42,1,.45.22,0,.32.1.32.24v.17c0,.19-.08.29-.25.29l-1-.09-1-.08-1.06.08-1,.09c-.17,0-.25-.1-.25-.29v-.17c0-.14.11-.22.34-.24.6-.06.95-.21,1-.45a1,1,0,0,0,.11-.58l0-1.62V74.26A4.75,4.75,0,0,0,100,72.7a2.62,2.62,0,0,0-1-.79l0-.31,1.41-.76c.46-.24.78-.42,1-.53l.3-.17.11,0v2a13.7,13.7,0,0,1,2.06-1.54,3.07,3.07,0,0,1,1.48-.37,2.53,2.53,0,0,1,1.33.36,2.12,2.12,0,0,1,.87,1A6,6,0,0,1,107.9,74v3.59l0,1.62a1,1,0,0,0,.23.73,1.84,1.84,0,0,0,.92.3c.23,0,.34.1.34.24v.17c0,.19-.09.29-.27.29Z"/><path class="cls-7" d="M119,80.72l-1,.08-1,.09c-.17,0-.26-.1-.26-.29v-.17c0-.12.12-.21.34-.24.6-.06,1-.24,1.09-.55a1.91,1.91,0,0,0,.09-.67V74.28a4.49,4.49,0,0,0-.26-1.82,1.53,1.53,0,0,0-1.51-.83,4,4,0,0,0-2.72,1.26v4.65l0,1.79a.78.78,0,0,0,.28.6,1.87,1.87,0,0,0,.88.26c.23,0,.34.1.34.24v.17c0,.19-.09.29-.28.29l-1-.09-1-.08c-.16,0-.53,0-1.12.08l-1,.09a.26.26,0,0,1-.3-.29v-.17a.18.18,0,0,1,.09-.18,2.1,2.1,0,0,1,.38-.06q.81,0,1-.45a8.58,8.58,0,0,0,.13-2.2V66.43a4.68,4.68,0,0,0-.15-1.55,2.53,2.53,0,0,0-1-.79l-.05-.31L112.4,63l1.27-.69.15,0c0,.06,0,1.29,0,3.68v6.1a13.74,13.74,0,0,1,2.06-1.56,3.14,3.14,0,0,1,1.53-.35,2.3,2.3,0,0,1,2,.91,4.38,4.38,0,0,1,.57,2.56v3.83c0,1,0,1.63,0,1.84a.81.81,0,0,0,.18.48,1.67,1.67,0,0,0,1,.38c.08,0,.13.07.13.19v.17c0,.19-.07.29-.22.29L120,80.8C119.5,80.75,119.16,80.72,119,80.72Z"/><path class="cls-7" d="M127.58,70.24A4.33,4.33,0,0,1,131,71.82a5.5,5.5,0,0,1,1.4,3.8,5.61,5.61,0,0,1-1.5,3.95,4.81,4.81,0,0,1-3.67,1.63,4.27,4.27,0,0,1-3.36-1.53,5.67,5.67,0,0,1-1.34-3.86A5.6,5.6,0,0,1,124,71.89,4.67,4.67,0,0,1,127.58,70.24Zm2,2.19a2.68,2.68,0,0,0-2.37-1.4,2.23,2.23,0,0,0-2.13,1.22,6.35,6.35,0,0,0-.71,3.13,6.54,6.54,0,0,0,.91,3.62,2.69,2.69,0,0,0,2.34,1.41,2.38,2.38,0,0,0,2.09-1.15,5.47,5.47,0,0,0,.77-3.11A6.78,6.78,0,0,0,129.58,72.43Z"/><path class="cls-7" d="M141.21,78.33v-5a3.21,3.21,0,0,0-.26-1.63c-.17-.22-.58-.32-1.24-.31-.13,0-.19-.08-.19-.24v-.24c0-.12.11-.2.34-.21a24.15,24.15,0,0,0,2.72-.53l.27.12c0,.53,0,1.16,0,1.89v5.34a7.57,7.57,0,0,0,.09,1.74.35.35,0,0,0,.38.24,4.32,4.32,0,0,0,.88-.19.9.9,0,0,1,0,.31.76.76,0,0,1,0,.31l-2.93,1.25-.11-.38.07-1.75a11.37,11.37,0,0,1-1.82,1.71,2.65,2.65,0,0,1-1.49.42,2.57,2.57,0,0,1-2.23-1.1,5.16,5.16,0,0,1-.55-2.78V73.18a2.8,2.8,0,0,0-.26-1.45,1.1,1.1,0,0,0-1-.34,1.23,1.23,0,0,1-.37,0s-.06-.1-.06-.21v-.24a.22.22,0,0,1,.06-.18,2.15,2.15,0,0,1,.43-.06c.54-.08,1.4-.24,2.59-.5l.25.12v.41l0,.91V76.7a4.86,4.86,0,0,0,.28,2.06,1.78,1.78,0,0,0,1.67.91A3.3,3.3,0,0,0,141.21,78.33Z"/><path class="cls-7" d="M151.25,71l-.13,2.18h-.51a3.89,3.89,0,0,0-.76-1.67,1.56,1.56,0,0,0-1.21-.51,1.69,1.69,0,0,0-1.19.46,1.43,1.43,0,0,0-.49,1.1,1.31,1.31,0,0,0,.35,1,10.16,10.16,0,0,0,1.61,1.16,7.79,7.79,0,0,1,2,1.6,2.65,2.65,0,0,1,.53,1.65,3.08,3.08,0,0,1-1,2.33,3.45,3.45,0,0,1-2.47,1,4.74,4.74,0,0,1-2.65-.86L145.2,78l.6,0a4.07,4.07,0,0,0,.92,1.85,1.9,1.9,0,0,0,1.43.66,1.6,1.6,0,0,0,1.23-.54,1.8,1.8,0,0,0,.5-1.3,1.68,1.68,0,0,0-.44-1.15,7.28,7.28,0,0,0-1.57-1.2,6.36,6.36,0,0,1-1.81-1.43,2.66,2.66,0,0,1-.51-1.65,2.72,2.72,0,0,1,.9-2.1,3.29,3.29,0,0,1,2.3-.82A5.11,5.11,0,0,1,151.25,71Z"/><path class="cls-7" d="M160.44,74.52h-6.05c0,.46-.06.77-.06.91a4.65,4.65,0,0,0,1,3,3,3,0,0,0,2.33,1.27,2.32,2.32,0,0,0,1.14-.31,6.37,6.37,0,0,0,1.3-1.08l.36.31c-1.06,1.74-2.3,2.61-3.74,2.61a3.49,3.49,0,0,1-2.82-1.46,5.56,5.56,0,0,1-1.15-3.57,7,7,0,0,1,1.19-4,3.77,3.77,0,0,1,3.21-1.94A3,3,0,0,1,160,71.89a4.76,4.76,0,0,1,.47,2.27ZM154.5,74l2.78-.07a2.24,2.24,0,0,0,1.15-.22,1,1,0,0,0,.26-.71,2,2,0,0,0-.53-1.39,1.64,1.64,0,0,0-1.25-.58,1.86,1.86,0,0,0-1.48.78A5.17,5.17,0,0,0,154.5,74Z"/></g></g></svg>