<?xml version="1.0" encoding="UTF-8"?>
<svg id="Layer_1" data-name="Layer 1" xmlns="http://www.w3.org/2000/svg" viewBox="0 0 512 512">
  <defs>
    <style>
      .cls-1 {
        fill: #0af;
      }

      .cls-1, .cls-2 {
        stroke-width: 0px;
      }

      .cls-2 {
        fill-rule: evenodd;
      }
    </style>
  </defs>
  <rect class="cls-1" width="512" height="512" rx="37.19" ry="37.19"/>
  <path class="cls-2" d="m470.32,54.26H41.68c-2.96,0-5.37,2.4-5.37,5.37v50.28c0,2.96,2.41,5.37,5.37,5.37h116.4s9.36,0,9.36,9.82v340.58c0,2.96,2.4,5.36,5.37,5.36h31.43s119.82.01,119.82.01c5.61,0,10.17-3.92,10.17-8.74V125.1c0-4.01,1.55-6.37,3.39-7.79.01-.01.03-.02.05-.04,3.13-1.98,7.04-1.99,7.04-1.99h125.61c2.97,0,5.37-2.41,5.37-5.37v-50.28c0-2.97-2.4-5.37-5.37-5.37Zm-166.6,261.53v135.28c0,9.82-9.37,9.82-9.37,9.82h-56.53s-9.37,0-9.37-9.82v-138.02c0-9.82,9.37-9.82,9.37-9.82h56.53s9.37,0,9.37,9.82v2.75Zm0-187.94v135.05c0,9.82-9.37,9.82-9.37,9.82h-56.53s-9.37,0-9.37-9.82V125.1c0-9.82,9.37-9.82,9.37-9.82h56.53s9.37,0,9.37,9.82v2.75Z"/>
</svg>