<svg xmlns="http://www.w3.org/2000/svg" viewBox="0 0 40.77 40.91"><defs><style>.cls-1{fill:none;stroke:#2E408E;}.cls-1,.cls-2{stroke-miterlimit:10;}.cls-2,.cls-3{fill:#2E408E;}.cls-2{stroke:#2E408E;}</style></defs><title>Asset 15</title><g id="Layer_2"><g id="Layer_2-2"><polygon class="cls-1" points="0.71 34.99 34.86 0.71 40.06 5.92 5.9 40.2 0.71 34.99"/><line class="cls-2" x1="4.42" y1="31.09" x2="7.46" y2="34.14"/><line class="cls-2" x1="8.5" y1="27" x2="11.54" y2="30.05"/><line class="cls-2" x1="12.57" y1="22.91" x2="15.61" y2="25.96"/><line class="cls-3" x1="17.06" y1="18.41" x2="20.1" y2="21.46"/><line class="cls-2" x1="21.54" y1="13.91" x2="24.58" y2="16.96"/><line class="cls-2" x1="26.02" y1="9.41" x2="29.06" y2="12.46"/><line class="cls-2" x1="30.5" y1="4.91" x2="33.54" y2="7.96"/><rect class="cls-3" x="5.42" y="19.08" width="32.97" height="6.91" transform="translate(21.45 53.95) rotate(-135)"/><polyline class="cls-3" points="37.13 32.83 37.13 37.77 32.2 37.77"/><rect class="cls-3" x="0.96" y="2.45" width="7.03" height="5.32" transform="translate(-2.3 4.66) rotate(-45)"/><rect class="cls-3" x="4.9" y="7.72" width="7.03" height="2.66" transform="translate(-3.93 8.6) rotate(-45)"/></g></g></svg>